<svg width="40" height="44" viewBox="0 0 40 44" fill="none" xmlns="http://www.w3.org/2000/svg">
<circle cx="20" cy="23.2117" r="20" fill="#E13E3E"/>
<path d="M10.792 43.3149C10.2321 43.3149 9.62321 43.266 8.96533 43.168C8.32145 43.084 7.67057 42.895 7.0127 42.6011C6.36882 42.3071 5.74593 41.8942 5.14404 41.3623C4.55615 40.8164 4.03125 40.1025 3.56934 39.2207C3.12142 38.3389 2.75749 37.2541 2.47754 35.9663C2.21159 34.6646 2.07861 33.1178 2.07861 31.3262V18.6235C2.07861 16.8179 2.21859 15.2782 2.49854 14.0044C2.77848 12.7166 3.14941 11.6388 3.61133 10.771C4.07324 9.88916 4.60514 9.18929 5.20703 8.67139C5.80892 8.15348 6.4318 7.76156 7.07568 7.49561C7.71956 7.21566 8.35645 7.03369 8.98633 6.94971C9.63021 6.86572 10.2251 6.82373 10.771 6.82373C12.1987 6.82373 13.3885 7.02669 14.3403 7.43262C15.3062 7.82454 16.076 8.37044 16.6499 9.07031C17.2378 9.75618 17.6507 10.561 17.8887 11.4849C18.1406 12.4087 18.2666 13.3885 18.2666 14.4243C18.2666 15.1942 18.2246 15.908 18.1406 16.5659C18.0706 17.2098 17.9587 17.9237 17.8047 18.7075H13.3955V16.8809C13.3955 14.9072 13.1785 13.4305 12.7446 12.4507C12.3107 11.4709 11.6738 10.981 10.834 10.981C10.3301 10.981 9.88916 11.0789 9.51123 11.2749C9.1333 11.4709 8.81836 11.8068 8.56641 12.2827C8.31445 12.7446 8.11849 13.3605 7.97852 14.1304C7.85254 14.9002 7.78955 15.859 7.78955 17.0068V33.3838C7.78955 34.5036 7.83854 35.4344 7.93652 36.1763C8.0485 36.9181 8.22347 37.513 8.46143 37.9609C8.69938 38.4089 9.00732 38.7308 9.38525 38.9268C9.77718 39.1087 10.2461 39.1997 10.792 39.1997C11.1419 39.1997 11.4779 39.1227 11.7998 38.9688C12.1217 38.8008 12.4017 38.5488 12.6396 38.2129C12.8916 37.863 13.0876 37.429 13.2275 36.9111C13.3815 36.3792 13.4585 35.7563 13.4585 35.0425V31.5361H18.4346V34.8535C18.4346 37.737 17.7767 39.8646 16.4609 41.2363C15.1452 42.6081 13.2555 43.3009 10.792 43.3149ZM20.0513 7.13867H25.6152L29.5625 35.5464H29.7935L33.7617 7.13867H39.3047L32.7749 43H26.5601L20.0513 7.13867Z" fill="white"/>
</svg>
